<mxfile host="app.diagrams.net" modified="2023-06-11T10:00:53.951Z" agent="Mozilla/5.0 (Windows NT 10.0; Win64; x64) AppleWebKit/537.36 (KHTML, like Gecko) Chrome/114.0.0.0 Safari/537.36" etag="iFLwNGSXBmZD7Wlri1TF" version="21.3.3" type="github">
  <diagram name="Page-1" id="N1shHY6HkYORtRQWDFSF">
    <mxGraphModel dx="1621" dy="1631" grid="1" gridSize="10" guides="1" tooltips="1" connect="1" arrows="1" fold="1" page="1" pageScale="1" pageWidth="827" pageHeight="1169" math="0" shadow="0">
      <root>
        <mxCell id="0" />
        <mxCell id="1" parent="0" />
        <mxCell id="3" value="SERVER &#xa;ASP.NET Core Web Application" style="rounded=1;absoluteArcSize=1;arcSize=14;whiteSpace=wrap;strokeWidth=2;fillColor=#d5e8d4;strokeColor=#82b366;" parent="1" vertex="1">
          <mxGeometry x="-180" y="-300" width="120" height="100" as="geometry" />
        </mxCell>
        <mxCell id="eHccEkiyvKKOzy9Oyfpd-5" value="" style="curved=1;startArrow=none;endArrow=block;exitX=0.9997755247971107;exitY=0.4950980579151827;entryX=-0.00021343543881275614;entryY=0.4950980579151827;" edge="1" parent="1" target="eHccEkiyvKKOzy9Oyfpd-4">
          <mxGeometry relative="1" as="geometry">
            <Array as="points" />
            <mxPoint x="-432" y="-263.1667408892738" as="sourcePoint" />
            <mxPoint x="-240" y="-263" as="targetPoint" />
          </mxGeometry>
        </mxCell>
        <mxCell id="eHccEkiyvKKOzy9Oyfpd-4" value="CLIENT&#xa;Web Application" style="rounded=1;absoluteArcSize=1;arcSize=14;whiteSpace=wrap;strokeWidth=2;fillColor=#f8cecc;strokeColor=#b85450;" vertex="1" parent="1">
          <mxGeometry x="-490" y="-300" width="120" height="100" as="geometry" />
        </mxCell>
        <mxCell id="eHccEkiyvKKOzy9Oyfpd-6" value="" style="shape=flexArrow;endArrow=classic;html=1;rounded=0;width=14;endSize=7.78;exitX=1;exitY=0.25;exitDx=0;exitDy=0;entryX=0;entryY=0.25;entryDx=0;entryDy=0;fillColor=#fff2cc;strokeColor=#d6b656;" edge="1" parent="1" source="eHccEkiyvKKOzy9Oyfpd-4" target="3">
          <mxGeometry width="50" height="50" relative="1" as="geometry">
            <mxPoint x="-320" y="-270" as="sourcePoint" />
            <mxPoint x="-240" y="-270" as="targetPoint" />
          </mxGeometry>
        </mxCell>
        <mxCell id="eHccEkiyvKKOzy9Oyfpd-7" value="Cerere HTTP" style="text;html=1;align=center;verticalAlign=middle;whiteSpace=wrap;rounded=0;" vertex="1" parent="1">
          <mxGeometry x="-320" y="-310" width="80" height="30" as="geometry" />
        </mxCell>
        <mxCell id="eHccEkiyvKKOzy9Oyfpd-8" value="" style="shape=flexArrow;endArrow=classic;html=1;rounded=0;exitX=0;exitY=0.75;exitDx=0;exitDy=0;entryX=1;entryY=0.75;entryDx=0;entryDy=0;fillColor=#e1d5e7;strokeColor=#9673a6;width=16;endSize=7.56;" edge="1" parent="1" source="3" target="eHccEkiyvKKOzy9Oyfpd-4">
          <mxGeometry width="50" height="50" relative="1" as="geometry">
            <mxPoint x="-260" y="-180" as="sourcePoint" />
            <mxPoint x="-210" y="-230" as="targetPoint" />
            <Array as="points" />
          </mxGeometry>
        </mxCell>
        <mxCell id="eHccEkiyvKKOzy9Oyfpd-9" value="Pagină HTML rezultată" style="text;html=1;strokeColor=none;fillColor=none;align=center;verticalAlign=middle;whiteSpace=wrap;rounded=0;" vertex="1" parent="1">
          <mxGeometry x="-310" y="-210" width="90" height="30" as="geometry" />
        </mxCell>
      </root>
    </mxGraphModel>
  </diagram>
</mxfile>
